<?xml version="1.0" encoding="utf-8"?>
<!-- Generator: Adobe Illustrator 16.0.0, SVG Export Plug-In . SVG Version: 6.00 Build 0)  -->
<!DOCTYPE svg PUBLIC "-//W3C//DTD SVG 1.1//EN" "http://www.w3.org/Graphics/SVG/1.1/DTD/svg11.dtd">
<svg version="1.1" id="Layer_1" xmlns="http://www.w3.org/2000/svg" xmlns:xlink="http://www.w3.org/1999/xlink" x="0px" y="0px"
	 width="60px" height="60px" viewBox="0 0 60 60" enable-background="new 0 0 60 60" xml:space="preserve">
<path fill="#FFFFFF" d="M30,0C13.431,0,0,13.432,0,30s13.431,30,30,30c16.568,0,30-13.432,30-30S46.568,0,30,0z M22.196,38.572
	c-2.63,0-5.268-0.596-7.409-2.991l1.779-2.41c1.514,1.688,3.784,2.38,5.695,2.41c1.609,0,3.419-0.596,3.454-2.109
	c0.035-1.449-1.345-2.007-3.751-2.24c-3.06-0.292-6.582-1.281-6.614-4.867c0-3.59,3.714-4.937,6.745-4.937
	c2.504,0,4.445,0.559,6.254,2.173l-1.909,2.235c-1.283-1.181-2.664-1.516-4.279-1.516c-2.074-0.03-3.454,0.662-3.454,1.943
	c0.034,1.35,1.449,1.876,3.523,2.072c2.992,0.265,6.909,0.922,6.879,5.101C29.074,36.466,26.406,38.572,22.196,38.572z
	 M39.062,38.51c-4.675,0-8.56-2.929-8.56-8.527c0-5.592,3.85-8.524,8.56-8.524c2.236,0,4.112,0.69,5.854,2.406l-2.168,2.269
	c-1.022-0.986-2.374-1.449-3.651-1.449c-2.933,0-5.203,2.074-5.203,5.299c0,3.422,2.373,5.234,5.168,5.234
	c1.38,0,2.793-0.429,3.848-1.516l2.304,2.271C43.402,37.749,41.394,38.51,39.062,38.51z"/>
</svg>
