<?xml version="1.0" encoding="utf-8"?>
<!-- Generator: Adobe Illustrator 16.0.0, SVG Export Plug-In . SVG Version: 6.00 Build 0)  -->
<!DOCTYPE svg PUBLIC "-//W3C//DTD SVG 1.1//EN" "http://www.w3.org/Graphics/SVG/1.1/DTD/svg11.dtd">
<svg version="1.1" id="Layer_1" xmlns="http://www.w3.org/2000/svg" xmlns:xlink="http://www.w3.org/1999/xlink" x="0px" y="0px"
	 width="60px" height="60px" viewBox="0 0 60 60" enable-background="new 0 0 60 60" xml:space="preserve">
<g>
	<path fill="#FFFFFF" d="M26.44,25.836c-1.283-1.181-2.664-1.516-4.279-1.516c-2.074-0.03-3.454,0.662-3.454,1.943
		c0.034,1.35,1.449,1.876,3.523,2.072c2.992,0.265,6.909,0.922,6.879,5.101c-0.035,3.029-2.703,5.136-6.913,5.136
		c-2.63,0-5.268-0.596-7.409-2.991l1.779-2.41c1.514,1.688,3.784,2.38,5.695,2.41c1.609,0,3.419-0.596,3.454-2.109
		c0.035-1.449-1.345-2.007-3.751-2.24c-3.06-0.292-6.582-1.281-6.614-4.867c0-3.59,3.714-4.937,6.745-4.937
		c2.504,0,4.445,0.559,6.254,2.173L26.44,25.836z"/>
	<path fill="#FFFFFF" d="M45.213,35.972c-1.811,1.777-3.819,2.538-6.151,2.538c-4.675,0-8.56-2.929-8.56-8.527
		c0-5.592,3.85-8.524,8.56-8.524c2.236,0,4.112,0.69,5.854,2.406l-2.168,2.269c-1.022-0.986-2.374-1.449-3.651-1.449
		c-2.933,0-5.203,2.074-5.203,5.299c0,3.422,2.373,5.234,5.168,5.234c1.38,0,2.793-0.429,3.848-1.516L45.213,35.972z"/>
</g>
<g>
	<path fill="#FFFFFF" d="M30,60C13.458,60,0,46.541,0,29.999C0,13.458,13.458,0,30,0s30,13.458,30,29.999C60,46.541,46.542,60,30,60
		z M30,1.936c-15.475,0-28.064,12.589-28.064,28.063c0,15.476,12.59,28.065,28.064,28.065s28.064-12.59,28.064-28.065
		C58.064,14.524,45.475,1.936,30,1.936z"/>
</g>
</svg>
