<?xml version="1.0" encoding="utf-8"?>
<!-- Generator: Adobe Illustrator 16.0.0, SVG Export Plug-In . SVG Version: 6.00 Build 0)  -->
<!DOCTYPE svg PUBLIC "-//W3C//DTD SVG 1.1//EN" "http://www.w3.org/Graphics/SVG/1.1/DTD/svg11.dtd">
<svg version="1.1" id="Layer_1" xmlns="http://www.w3.org/2000/svg" xmlns:xlink="http://www.w3.org/1999/xlink" x="0px" y="0px"
	 width="100px" height="100px" viewBox="0 0 100 100" enable-background="new 0 0 100 100" xml:space="preserve">
<g id="Clients" display="none">
	<g display="inline">
		<g>
			<path fill="#464646" d="M53.918,43.079h-7.836c-1.998,0-3.624-1.626-3.624-3.624v-6.338c0-1.997,1.626-3.623,3.624-3.623h7.836
				c1.998,0,3.623,1.626,3.623,3.623v6.338C57.541,41.453,55.916,43.079,53.918,43.079z M46.082,31.21
				c-1.051,0-1.907,0.855-1.907,1.907v6.338c0,1.053,0.856,1.908,1.907,1.908h7.836c1.052,0,1.908-0.855,1.908-1.908v-6.338
				c0-1.052-0.856-1.907-1.908-1.907H46.082z"/>
		</g>
		<g>
			<polygon fill="#464646" points="46.9,55.777 47.912,56.234 50,57.175 52.088,56.234 53.1,55.777 53.218,55.724 53.218,53.842 
				50,55.293 46.796,53.847 46.792,55.728 			"/>
		</g>
		<g>
			<path fill="#464646" d="M26.477,35.324v9.361l1.597,0.721l16.993,7.661v-1.395c0-0.956,0.778-1.735,1.736-1.735h6.396
				c0.956,0,1.735,0.779,1.735,1.735v1.395l16.992-7.661l1.598-0.721v-9.361H26.477z"/>
		</g>
		<g>
			<path fill="#464646" d="M53.198,60.646h-6.396c-0.958,0-1.736-0.778-1.736-1.735v-3.96l-16.993-7.661v8.488v13.87h43.852v-13.87
				v-8.488L54.934,54.95v3.96C54.934,59.867,54.154,60.646,53.198,60.646z"/>
		</g>
		<g>
			<polygon fill="#464646" points="51.599,52.9 51.599,54.57 53.218,53.842 53.218,51.673 46.802,51.654 46.796,53.847 
				48.401,54.57 48.401,52.9 			"/>
		</g>
		<g>
			<path fill="#464646" d="M48.401,57.896v-1.443l-0.489-0.219L46.9,55.777l-0.109-0.05l-0.009,3.183l6.416,0.02
				c0.011,0,0.02-0.008,0.02-0.02v-3.187L53.1,55.777l-1.012,0.457l-0.489,0.219v1.443H48.401z"/>
		</g>
	</g>
	<g display="inline">
		<path fill="#464646" d="M50,99.5C22.705,99.5,0.5,77.295,0.5,50S22.705,0.5,50,0.5S99.5,22.705,99.5,50S77.295,99.5,50,99.5z
			 M50,2.216C23.652,2.216,2.216,23.652,2.216,50c0,26.349,21.436,47.784,47.784,47.784c26.349,0,47.784-21.436,47.784-47.784
			C97.784,23.652,76.349,2.216,50,2.216z"/>
	</g>
</g>
<g>
	<g>
		<path fill="#464646" d="M47.972,31.811c0.024,0.089,0.054,0.176,0.092,0.258c0.008,0.017,0.017,0.032,0.026,0.048
			c0.045,0.09,0.098,0.174,0.16,0.253c0.004,0.005,0.009,0.01,0.013,0.015c0.18,0.227,0.416,0.403,0.691,0.506
			c0.01,0.003,0.02,0.005,0.03,0.009c0.167,0.059,0.344,0.097,0.531,0.097h0.464c0.188,0,0.364-0.038,0.531-0.097
			c0.01-0.003,0.02-0.005,0.028-0.009c0.169-0.063,0.321-0.154,0.458-0.267c0.001,0,0.001,0,0.002-0.001s0.001-0.001,0.002-0.003
			c0.084-0.069,0.16-0.147,0.229-0.232c0.006-0.007,0.011-0.014,0.017-0.021c0.061-0.078,0.112-0.161,0.157-0.25
			c0.009-0.017,0.02-0.032,0.027-0.049c0.038-0.082,0.067-0.168,0.092-0.257c0.007-0.024,0.016-0.047,0.022-0.072
			c0.024-0.112,0.039-0.228,0.039-0.347v-7.775c0-0.887-0.718-1.605-1.604-1.605h-0.464c-0.886,0-1.604,0.718-1.604,1.605v7.775
			c0,0.12,0.015,0.235,0.04,0.347C47.956,31.765,47.966,31.786,47.972,31.811z"/>
		<path fill="#464646" d="M70.438,54.523c-2.597,2.752-5.775,4.944-9.333,6.394l-0.706-1.939c3.367-1.381,6.364-3.486,8.786-6.13
			l-0.758-1.01c-2.316,2.58-5.201,4.634-8.452,5.976l-6.23-17.118c0.681-0.867,1.103-1.945,1.103-3.133
			c0-1.529-0.677-2.897-1.743-3.833c-0.712,0.952-1.846,1.571-3.125,1.571h-0.464c-1.278,0-2.412-0.62-3.125-1.572
			c-1.066,0.936-1.743,2.304-1.743,3.833c0,1.188,0.422,2.266,1.102,3.133L34.495,71.615l-2.319,6.372l3.67-5.881l2.434,0.885
			l3.792-10.416c2.846,0.988,5.9,1.53,9.079,1.53c2.255,0,4.443-0.278,6.544-0.787l3.521,9.673l2.434-0.885l3.67,5.881l-2.319-6.372
			l-3.469-9.532c3.675-1.486,6.964-3.731,9.664-6.55L70.438,54.523z M49.333,42.623c0.139,0.011,0.272,0.042,0.415,0.042
			s0.275-0.03,0.415-0.042l5.97,16.402c-1.605,0.352-3.272,0.538-4.982,0.538c-2.634,0-5.156-0.463-7.519-1.274L49.333,42.623z
			 M51.149,62.866c-3.031,0-5.939-0.518-8.654-1.459l0.712-1.957c2.495,0.86,5.159,1.353,7.941,1.353
			c1.857,0,3.667-0.212,5.408-0.607l0.709,1.949C55.302,62.611,53.256,62.866,51.149,62.866z"/>
	</g>
	<path fill="#464646" d="M50,0.5C22.705,0.5,0.5,22.706,0.5,50c0,27.294,22.205,49.5,49.5,49.5S99.5,77.295,99.5,50
		C99.5,22.706,77.295,0.5,50,0.5z M50,97.784C23.652,97.784,2.216,76.35,2.216,50C2.216,23.652,23.652,2.216,50,2.216
		c26.349,0,47.784,21.436,47.784,47.784C97.784,76.35,76.349,97.784,50,97.784z"/>
</g>
<g id="Contacts" display="none">
	<g display="inline">
		<path fill="#464646" d="M50,75.18c-0.474,0-0.858-0.386-0.858-0.859V25.679c0-0.474,0.385-0.858,0.858-0.858
			s0.857,0.385,0.857,0.858V74.32C50.857,74.794,50.474,75.18,50,75.18z"/>
	</g>
	<g display="inline">
		<path fill="#464646" d="M74.321,50.857H25.678c-0.474,0-0.857-0.384-0.857-0.857s0.384-0.857,0.857-0.857h48.643
			c0.474,0,0.858,0.384,0.858,0.857S74.795,50.857,74.321,50.857z"/>
	</g>
	<g display="inline">
		<path fill="#464646" d="M50,99.5C22.705,99.5,0.5,77.295,0.5,50S22.705,0.5,50,0.5S99.5,22.705,99.5,50S77.295,99.5,50,99.5z
			 M50,2.216C23.652,2.216,2.216,23.652,2.216,50c0,26.349,21.436,47.784,47.784,47.784c26.349,0,47.784-21.436,47.784-47.784
			C97.784,23.652,76.349,2.216,50,2.216z"/>
	</g>
</g>
<g id="Me" display="none">
	<g display="inline">
		<g>
			<path fill="#464646" d="M50,24.964c-6.487,0-11.746,5.751-11.746,12.847c0,0.276,0.006,0.55,0.014,0.823
				c0.002,0.073,0.005,0.146,0.007,0.22c0.009,0.23,0.02,0.46,0.035,0.69c0.003,0.044,0.005,0.089,0.008,0.133
				c0.018,0.265,0.04,0.527,0.065,0.79c0.007,0.069,0.015,0.138,0.022,0.208c0.022,0.208,0.046,0.414,0.073,0.619
				c0.008,0.066,0.016,0.133,0.025,0.198c0.035,0.251,0.072,0.501,0.113,0.749c0.011,0.064,0.022,0.128,0.033,0.193
				c0.034,0.192,0.069,0.384,0.107,0.573c0.015,0.079,0.031,0.157,0.047,0.236c0.049,0.236,0.101,0.472,0.156,0.705
				c0.013,0.055,0.027,0.11,0.042,0.166c0.045,0.185,0.093,0.368,0.142,0.549c0.024,0.088,0.047,0.175,0.073,0.262
				c0.048,0.17,0.098,0.34,0.15,0.508c0.026,0.086,0.053,0.173,0.081,0.258c0.06,0.187,0.121,0.37,0.185,0.552
				c0.034,0.096,0.068,0.19,0.103,0.286c0.046,0.129,0.095,0.257,0.145,0.384c0.036,0.093,0.071,0.186,0.108,0.277
				c0.074,0.186,0.151,0.369,0.23,0.549c0.045,0.103,0.091,0.204,0.137,0.305c0.046,0.101,0.092,0.201,0.139,0.299
				c0.05,0.105,0.1,0.211,0.152,0.315s0.105,0.206,0.159,0.308c0.088,0.169,0.178,0.336,0.27,0.5
				c0.042,0.075,0.083,0.149,0.126,0.223c0.065,0.11,0.129,0.221,0.195,0.33c0.036,0.059,0.072,0.116,0.108,0.173
				c0.128,0.206,0.26,0.406,0.395,0.603c0.032,0.045,0.063,0.093,0.096,0.139c0.078,0.11,0.157,0.221,0.237,0.328
				c0.031,0.042,0.063,0.083,0.094,0.125c0.177,0.232,0.356,0.458,0.542,0.676c0,0,0,0.001,0,0.001
				c0.091,0.106,0.183,0.21,0.277,0.313c0.029,0.032,0.058,0.062,0.087,0.093c0.289,0.313,0.589,0.605,0.896,0.879
				c0.029,0.025,0.058,0.049,0.087,0.074c0.285,0.248,0.577,0.477,0.876,0.688c0.044,0.03,0.088,0.061,0.131,0.091
				c0.144,0.098,0.289,0.189,0.435,0.279c0.057,0.034,0.114,0.07,0.17,0.103c0.084,0.049,0.169,0.097,0.254,0.144
				c0.09,0.049,0.18,0.095,0.271,0.14c0.1,0.05,0.201,0.099,0.303,0.145c0.09,0.041,0.18,0.08,0.27,0.117
				c0.066,0.027,0.131,0.056,0.197,0.081c0.141,0.054,0.282,0.104,0.425,0.148c0.059,0.019,0.117,0.037,0.176,0.055
				c0.153,0.046,0.306,0.09,0.461,0.125c0.032,0.008,0.066,0.015,0.099,0.021c0.145,0.032,0.291,0.062,0.437,0.085
				c0.04,0.007,0.079,0.015,0.119,0.021c0.168,0.025,0.337,0.045,0.507,0.059c0.037,0.004,0.074,0.006,0.112,0.008
				c0.179,0.014,0.358,0.021,0.54,0.021s0.36-0.007,0.539-0.021c0.037-0.002,0.074-0.004,0.112-0.008
				c0.17-0.014,0.339-0.033,0.507-0.059c0.041-0.006,0.079-0.014,0.12-0.021c0.146-0.023,0.291-0.053,0.437-0.085
				c0.033-0.007,0.065-0.014,0.099-0.021c0.155-0.036,0.309-0.08,0.462-0.125c0.059-0.018,0.117-0.036,0.174-0.055
				c0.144-0.045,0.286-0.095,0.426-0.148c0.066-0.025,0.131-0.054,0.195-0.081c0.093-0.037,0.183-0.076,0.273-0.118
				c0.1-0.045,0.198-0.092,0.297-0.142c0.093-0.046,0.186-0.093,0.277-0.143c0.085-0.046,0.168-0.093,0.251-0.142
				c0.061-0.034,0.12-0.071,0.18-0.107c0.143-0.087,0.284-0.177,0.424-0.272c0.046-0.032,0.093-0.063,0.138-0.096
				c0.184-0.128,0.363-0.264,0.538-0.404c0.01-0.008,0.018-0.014,0.027-0.021c0,0,0.001-0.001,0.002-0.002
				c0.102-0.081,0.201-0.167,0.302-0.253c0.032-0.028,0.064-0.056,0.098-0.085c0.303-0.27,0.599-0.558,0.885-0.865
				c0.032-0.036,0.064-0.07,0.097-0.105c0.091-0.101,0.182-0.201,0.271-0.306c0.007-0.008,0.013-0.018,0.021-0.025
				c0.176-0.207,0.349-0.424,0.518-0.646c0.034-0.045,0.068-0.09,0.104-0.136c0.078-0.106,0.155-0.213,0.231-0.322
				c0.035-0.05,0.07-0.102,0.104-0.151c0.13-0.191,0.257-0.384,0.382-0.583c0.039-0.062,0.077-0.123,0.115-0.186
				c0.065-0.107,0.13-0.216,0.193-0.326c0.044-0.075,0.087-0.151,0.13-0.227c0.089-0.159,0.176-0.32,0.26-0.484
				c0.057-0.107,0.112-0.214,0.167-0.323c0.051-0.103,0.101-0.207,0.15-0.312c0.048-0.1,0.096-0.201,0.142-0.303
				c0.046-0.101,0.091-0.2,0.136-0.302c0.079-0.181,0.156-0.365,0.232-0.551c0.035-0.09,0.07-0.183,0.106-0.274
				c0.049-0.128,0.098-0.258,0.145-0.388c0.034-0.094,0.069-0.188,0.102-0.283c0.064-0.183,0.126-0.367,0.187-0.553
				c0.026-0.086,0.054-0.174,0.081-0.261c0.052-0.167,0.102-0.335,0.149-0.505c0.024-0.087,0.05-0.175,0.073-0.263
				c0.049-0.181,0.097-0.364,0.142-0.548c0.014-0.056,0.028-0.11,0.042-0.166c0.056-0.233,0.105-0.468,0.155-0.704
				c0.017-0.079,0.031-0.158,0.047-0.237c0.037-0.189,0.074-0.381,0.106-0.572c0.012-0.065,0.023-0.129,0.035-0.194
				c0.041-0.248,0.078-0.497,0.112-0.749c0.01-0.065,0.018-0.132,0.026-0.198c0.025-0.205,0.05-0.411,0.072-0.618
				c0.007-0.07,0.015-0.14,0.021-0.209c0.025-0.262,0.047-0.523,0.065-0.788c0.003-0.045,0.004-0.09,0.008-0.136
				c0.014-0.228,0.025-0.458,0.035-0.688c0.002-0.074,0.004-0.147,0.007-0.22c0.009-0.273,0.015-0.547,0.015-0.823
				C61.747,30.715,56.487,24.964,50,24.964z"/>
		</g>
		<g>
			<path fill="#464646" d="M55.677,58.941c-0.033-0.571-0.063-1.146-0.095-1.721c-1.723,1.126-3.613,1.724-5.582,1.724
				c-1.968,0-3.859-0.598-5.582-1.724c-0.031,0.575-0.062,1.149-0.095,1.721c-10.896,1.372-19.009,6.605-19.009,12.855
				c0,0.369,0.036,0.732,0.091,1.093c7.325,1.369,15.699,2.146,24.596,2.146s17.271-0.777,24.596-2.146
				c0.054-0.36,0.089-0.724,0.089-1.093C74.686,65.547,66.573,60.313,55.677,58.941z"/>
		</g>
	</g>
	<g display="inline">
		<path fill="#464646" d="M50,99.5C22.706,99.5,0.5,77.295,0.5,50C0.5,22.706,22.706,0.5,50,0.5c27.294,0,49.5,22.206,49.5,49.5
			C99.5,77.295,77.295,99.5,50,99.5z M50,2.216C23.652,2.216,2.216,23.652,2.216,50C2.216,76.35,23.652,97.784,50,97.784
			C76.35,97.784,97.784,76.35,97.784,50C97.784,23.652,76.35,2.216,50,2.216z"/>
	</g>
</g>
</svg>
