<?xml version="1.0" encoding="utf-8"?>
<!-- Generator: Adobe Illustrator 16.0.0, SVG Export Plug-In . SVG Version: 6.00 Build 0)  -->
<!DOCTYPE svg PUBLIC "-//W3C//DTD SVG 1.1//EN" "http://www.w3.org/Graphics/SVG/1.1/DTD/svg11.dtd">
<svg version="1.1" id="Layer_1" xmlns="http://www.w3.org/2000/svg" xmlns:xlink="http://www.w3.org/1999/xlink" x="0px" y="0px"
	 width="60px" height="60px" viewBox="0 0 60 60" enable-background="new 0 0 60 60" xml:space="preserve">
<path fill="#FFFFFF" d="M51.894,9.521c-0.455-0.487-0.927-0.958-1.414-1.414C45.114,3.084,37.912,0,30,0S14.887,3.084,9.521,8.106
	C9.034,8.563,8.563,9.034,8.106,9.521C3.084,14.887,0,22.088,0,29.999c0,7.912,3.084,15.114,8.107,20.48
	c0.455,0.486,0.927,0.958,1.414,1.414C14.887,56.916,22.089,60,30,60c7.912,0,15.113-3.084,20.479-8.106
	c0.486-0.456,0.958-0.927,1.414-1.414C56.916,45.113,60,37.911,60,29.999C60,22.088,56.916,14.886,51.894,9.521z M30,1.936
	c7.379,0,14.097,2.867,19.111,7.539L30,28.586L10.889,9.475C15.903,4.803,22.621,1.936,30,1.936z M1.936,29.999
	c0-7.378,2.866-14.096,7.539-19.11L28.586,30L9.475,49.111C4.803,44.097,1.936,37.378,1.936,29.999z M30,58.064
	c-7.378,0-14.097-2.866-19.111-7.539L30,31.414l19.111,19.111C44.097,55.198,37.378,58.064,30,58.064z M50.525,49.111L31.414,30
	l19.111-19.111c4.673,5.015,7.539,11.732,7.539,19.11C58.064,37.378,55.197,44.097,50.525,49.111z"/>
</svg>
