<?xml version="1.0" encoding="utf-8"?>
<!-- Generator: Adobe Illustrator 16.0.0, SVG Export Plug-In . SVG Version: 6.00 Build 0)  -->
<!DOCTYPE svg PUBLIC "-//W3C//DTD SVG 1.1//EN" "http://www.w3.org/Graphics/SVG/1.1/DTD/svg11.dtd">
<svg version="1.1" id="Layer_1" xmlns="http://www.w3.org/2000/svg" xmlns:xlink="http://www.w3.org/1999/xlink" x="0px" y="0px"
	 width="80px" height="80px" viewBox="10 10 80 80" enable-background="new 10 10 80 80" xml:space="preserve">
<g>
	<g>
		<path fill="#CF6357" d="M63.204,51.5c-0.384,0-0.768-0.146-1.061-0.439L43.376,32.293c-0.586-0.585-0.586-1.536,0-2.121
			c0.586-0.586,1.535-0.586,2.121,0l18.767,18.767c0.586,0.585,0.586,1.536,0,2.121C63.972,51.354,63.588,51.5,63.204,51.5z"/>
	</g>
	<g>
		<path fill="#CF6357" d="M44.437,70.267c-0.384,0-0.768-0.146-1.061-0.439c-0.586-0.586-0.586-1.535,0-2.121l18.767-18.767
			c0.586-0.586,1.535-0.586,2.121,0s0.586,1.536,0,2.121L45.498,69.827C45.205,70.12,44.821,70.267,44.437,70.267z"/>
	</g>
</g>
</svg>
