<?xml version="1.0" encoding="utf-8"?>
<!-- Generator: Adobe Illustrator 16.0.0, SVG Export Plug-In . SVG Version: 6.00 Build 0)  -->
<!DOCTYPE svg PUBLIC "-//W3C//DTD SVG 1.1//EN" "http://www.w3.org/Graphics/SVG/1.1/DTD/svg11.dtd">
<svg version="1.1" id="Layer_1" xmlns="http://www.w3.org/2000/svg" xmlns:xlink="http://www.w3.org/1999/xlink" x="0px" y="0px"
	 width="100px" height="100px" viewBox="0 0 100 100" enable-background="new 0 0 100 100" xml:space="preserve">
<g>
	
		<line fill="none" stroke="#CF6357" stroke-width="3" stroke-linecap="round" stroke-linejoin="round" stroke-miterlimit="10" x1="56.971" y1="26.482" x2="33.454" y2="50"/>
	
		<line fill="none" stroke="#CF6357" stroke-width="3" stroke-linecap="round" stroke-linejoin="round" stroke-miterlimit="10" x1="56.971" y1="73.518" x2="33.454" y2="50"/>
</g>
<g>
	<path fill="#CF6357" d="M50,3.5c25.641,0,46.5,20.86,46.5,46.5c0,25.641-20.859,46.5-46.5,46.5C24.36,96.5,3.5,75.641,3.5,50
		C3.5,24.36,24.36,3.5,50,3.5 M50,0.5C22.662,0.5,0.5,22.662,0.5,50S22.662,99.5,50,99.5S99.5,77.338,99.5,50S77.338,0.5,50,0.5
		L50,0.5z"/>
</g>
</svg>
